<svg width="250" height="250" viewBox="0 0 250 250" fill="none" xmlns="http://www.w3.org/2000/svg">
<path d="M114.539 217L77.0387 236C73.6582 236.122 71.9196 235.158 69.5387 231.5L60.5387 203.5C57.2528 189.889 55.5953 182.296 54.0387 169C52.3668 155.915 52.7746 148.577 56.5387 135.5C62.3181 129.58 64.3591 126.053 66.5387 119.5L47.0387 123C45.0039 122.344 43.9829 121.792 43.0387 119.5C42.8702 117.435 43.2017 116.328 45.0387 114.5L59.0387 111.5L62.5387 106C64.3534 103.807 65.7493 103.226 68.0387 102.5L64.5387 91L122.539 51.5L125.539 52.5L161.039 28C162.562 21.7023 163.297 18.0194 166.539 14C171.108 10.6873 173.208 8.6585 179.539 6L184.539 13L192.039 8L207.039 29.5L196.539 38L201.539 45.5L145.539 83.5L150.539 90.5C150.939 94.025 150.511 95.8742 148.539 99L132.539 110.5L140.539 123.5C142.32 128.772 142.056 131.728 140.539 137C131.472 146.802 125.281 150.721 113.039 156C108.322 156.349 106.288 155.198 104.039 150.5C98.0378 156.062 96.305 160.59 97.5387 172.5L114.539 206.5C117.008 211.557 117.006 213.855 114.539 217Z" stroke="#DBDBDB" stroke-width="4" stroke-linecap="round" stroke-dasharray="10 10"/>
<path d="M126.43 88.18C131.19 88.18 135.25 89.86 138.61 93.22C141.97 96.58 143.65 100.64 143.65 105.33C143.65 109.67 142.25 113.38 139.52 116.53C136.72 119.68 133.29 121.64 129.09 122.34V122.62C129.09 124.02 128.6 125.14 127.62 126.05C126.64 127.03 125.52 127.45 124.19 127.45C122.86 127.45 121.74 127.03 120.76 126.05C119.78 125.14 119.36 124.02 119.36 122.62V117.65C119.36 116.32 119.78 115.2 120.76 114.22C121.74 113.31 122.86 112.82 124.19 112.82H126.43C128.46 112.82 130.21 112.12 131.68 110.65C133.15 109.18 133.92 107.43 133.92 105.33C133.92 103.3 133.15 101.55 131.68 100.08C130.21 98.68 128.46 97.91 126.43 97.91H122.02C119.92 97.91 118.17 98.68 116.7 100.08C115.23 101.55 114.53 103.3 114.53 105.33C114.53 106.73 114.04 107.85 113.06 108.83C112.08 109.81 110.96 110.23 109.7 110.23C108.3 110.23 107.18 109.81 106.2 108.83C105.22 107.85 104.8 106.73 104.8 105.33C104.8 100.64 106.48 96.58 109.84 93.22C113.2 89.86 117.26 88.18 122.02 88.18H126.43ZM124.19 129.13C125.59 129.13 126.71 129.62 127.69 130.6C128.67 131.58 129.16 132.7 129.16 134.1C129.16 135.5 128.67 136.62 127.69 137.6C126.71 138.58 125.59 139 124.19 139C122.79 139 121.67 138.58 120.69 137.6C119.71 136.62 119.29 135.5 119.29 134.1C119.29 132.7 119.71 131.58 120.69 130.6C121.67 129.62 122.79 129.13 124.19 129.13Z" fill="#999999"/>
</svg>
