<svg width="169" height="235" viewBox="0 0 169 235" fill="none" xmlns="http://www.w3.org/2000/svg">
<path d="M73.5387 214L36.0387 233C32.6582 233.122 30.9196 232.158 28.5387 228.5L19.5387 200.5C16.2528 186.889 14.5953 179.296 13.0387 166C11.3668 152.915 11.7746 145.577 15.5387 132.5C21.3181 126.58 23.3591 123.053 25.5387 116.5L6.03873 120C4.00388 119.344 2.9829 118.792 2.03873 116.5C1.87015 114.435 2.20165 113.328 4.03873 111.5L18.0387 108.5L21.5387 103C23.3534 100.807 24.7493 100.226 27.0387 99.5L23.5387 88L81.5387 48.5L84.5387 49.5L120.039 25C121.562 18.7023 122.297 15.0194 125.539 11C130.108 7.68731 132.208 5.6585 138.539 3L143.539 10L151.039 5L166.039 26.5L155.539 35L160.539 42.5L104.539 80.5L109.539 87.5C109.939 91.025 109.511 92.8742 107.539 96L91.5387 107.5L99.5387 120.5C101.32 125.772 101.056 128.728 99.5387 134C90.4716 143.802 84.2807 147.721 72.0387 153C67.3216 153.349 65.2881 152.198 63.0387 147.5C57.0378 153.062 55.305 157.59 56.5387 169.5L73.5387 203.5C76.0085 208.557 76.0064 210.855 73.5387 214Z" stroke="#DBDBDB" stroke-width="4" stroke-linecap="round" stroke-dasharray="10 10"/>
<path d="M85.43 85.18C90.19 85.18 94.25 86.86 97.61 90.22C100.97 93.58 102.65 97.64 102.65 102.33C102.65 106.67 101.25 110.38 98.52 113.53C95.72 116.68 92.29 118.64 88.09 119.34V119.62C88.09 121.02 87.6 122.14 86.62 123.05C85.64 124.03 84.52 124.45 83.19 124.45C81.86 124.45 80.74 124.03 79.76 123.05C78.78 122.14 78.36 121.02 78.36 119.62V114.65C78.36 113.32 78.78 112.2 79.76 111.22C80.74 110.31 81.86 109.82 83.19 109.82H85.43C87.46 109.82 89.21 109.12 90.68 107.65C92.15 106.18 92.92 104.43 92.92 102.33C92.92 100.3 92.15 98.55 90.68 97.08C89.21 95.68 87.46 94.91 85.43 94.91H81.02C78.92 94.91 77.17 95.68 75.7 97.08C74.23 98.55 73.53 100.3 73.53 102.33C73.53 103.73 73.04 104.85 72.06 105.83C71.08 106.81 69.96 107.23 68.7 107.23C67.3 107.23 66.18 106.81 65.2 105.83C64.22 104.85 63.8 103.73 63.8 102.33C63.8 97.64 65.48 93.58 68.84 90.22C72.2 86.86 76.26 85.18 81.02 85.18H85.43ZM83.19 126.13C84.59 126.13 85.71 126.62 86.69 127.6C87.67 128.58 88.16 129.7 88.16 131.1C88.16 132.5 87.67 133.62 86.69 134.6C85.71 135.58 84.59 136 83.19 136C81.79 136 80.67 135.58 79.69 134.6C78.71 133.62 78.29 132.5 78.29 131.1C78.29 129.7 78.71 128.58 79.69 127.6C80.67 126.62 81.79 126.13 83.19 126.13Z" fill="#999999"/>
</svg>
