<svg width="24" height="24" viewBox="0 0 24 24" fill="none" xmlns="http://www.w3.org/2000/svg">
<path fill-rule="evenodd" clip-rule="evenodd" d="M14.607 10.7475C15.4263 11.3815 15.4263 12.6185 14.607 13.2525C12.4479 14.9231 10.037 16.2399 7.46449 17.1535L6.99844 17.3191C5.97492 17.6826 4.89811 16.9901 4.76013 15.938C4.42045 13.3479 4.42045 10.6521 4.76013 8.06199C4.89811 7.00991 5.97492 6.31743 6.99844 6.68095L7.46449 6.84647C10.037 7.76013 12.4479 9.07691 14.607 10.7475ZM13.689 12.0661C13.7323 12.0327 13.7323 11.9673 13.689 11.9339C11.6557 10.3605 9.38517 9.12042 6.96247 8.25997L6.49642 8.09444C6.39621 8.05885 6.26449 8.12674 6.2474 8.25704C5.9247 10.7176 5.9247 13.2824 6.2474 15.743C6.26449 15.8733 6.39621 15.9411 6.49642 15.9056L6.96247 15.74C9.38517 14.8796 11.6557 13.6395 13.689 12.0661Z" fill="black"/>
<path fill-rule="evenodd" clip-rule="evenodd" d="M18.0001 6.25C18.4143 6.25 18.7501 6.58579 18.7501 7V17C18.7501 17.4142 18.4143 17.75 18.0001 17.75C17.5859 17.75 17.2501 17.4142 17.2501 17V7C17.2501 6.58579 17.5859 6.25 18.0001 6.25Z" fill="black"/>
</svg>
