<svg width="57" height="57" viewBox="0 0 57 57" fill="none" xmlns="http://www.w3.org/2000/svg">
<path fill-rule="evenodd" clip-rule="evenodd" d="M44.0205 11.3199C45.7544 11.9587 46.9063 13.6106 46.9062 15.4584V41.5418C46.9062 43.3896 45.7544 45.0415 44.0205 45.6803C41.6675 46.5472 39.0825 46.5472 36.7295 45.6803C34.9956 45.0415 33.8437 43.3896 33.8438 41.5418L33.8438 15.4584C33.8438 13.6106 34.9956 11.9587 36.7295 11.3199C39.0825 10.4529 41.6675 10.453 44.0205 11.3199ZM43.3438 15.4584C43.3438 15.1031 43.1223 14.7855 42.789 14.6627C41.2308 14.0887 39.5192 14.0887 37.961 14.6627C37.6277 14.7855 37.4063 15.1031 37.4063 15.4584L37.4062 41.5418C37.4062 41.897 37.6277 42.2146 37.961 42.3374C39.5192 42.9115 41.2308 42.9115 42.789 42.3374C43.1223 42.2146 43.3437 41.897 43.3438 41.5418V15.4584Z" fill="#BDBDBD"/>
<path fill-rule="evenodd" clip-rule="evenodd" d="M20.2705 11.3199C22.0044 11.9587 23.1563 13.6106 23.1562 15.4584L23.1562 41.5418C23.1562 43.3896 22.0044 45.0415 20.2705 45.6803C17.9175 46.5472 15.3325 46.5472 12.9795 45.6803C11.2456 45.0415 10.0937 43.3896 10.0938 41.5418L10.0938 15.4584C10.0938 13.6106 11.2456 11.9587 12.9795 11.3199C15.3325 10.4529 17.9175 10.453 20.2705 11.3199ZM19.5938 15.4584C19.5938 15.1031 19.3723 14.7855 19.039 14.6627C17.4808 14.0887 15.7692 14.0887 14.211 14.6627C13.8777 14.7855 13.6563 15.1031 13.6563 15.4584L13.6563 41.5418C13.6563 41.897 13.8777 42.2146 14.211 42.3374C15.7692 42.9115 17.4808 42.9115 19.039 42.3374C19.3723 42.2146 19.5937 41.897 19.5937 41.5418L19.5938 15.4584Z" fill="#BDBDBD"/>
</svg>
