<svg width="57" height="57" viewBox="0 0 57 57" fill="none" xmlns="http://www.w3.org/2000/svg">
<path fill-rule="evenodd" clip-rule="evenodd" d="M45.7567 24.8991C48.1124 26.7219 48.1124 30.2783 45.7567 32.1011C38.6375 37.6097 30.6879 41.9515 22.2055 44.9642L20.6559 45.5146C17.6912 46.5675 14.5598 44.5617 14.1584 41.5014C13.037 32.9509 13.037 24.0494 14.1584 15.4989C14.5598 12.4386 17.6912 10.4327 20.6559 11.4857L22.2055 12.036C30.6879 15.0487 38.6375 19.3906 45.7567 24.8991ZM43.5766 29.2836C44.0891 28.887 44.0891 28.1132 43.5766 27.7167C36.756 22.4391 29.1398 18.2794 21.0132 15.3931L19.4636 14.8427C18.6918 14.5686 17.8049 15.091 17.6907 15.9621C16.6096 24.2051 16.6096 32.7951 17.6907 41.0381C17.8049 41.9092 18.6918 42.4316 19.4636 42.1575L21.0132 41.6071C29.1398 38.7209 36.756 34.5611 43.5766 29.2836Z" fill="white"/>
</svg>
