<svg width="63" height="63" viewBox="0 0 63 63" fill="none" xmlns="http://www.w3.org/2000/svg">
<path fill-rule="evenodd" clip-rule="evenodd" d="M38.3431 28.2122C40.4939 29.8764 40.4939 33.1236 38.3431 34.7878C32.6756 39.1731 26.3469 42.6297 19.5941 45.028L18.3707 45.4625C15.684 46.4167 12.8574 44.599 12.4952 41.8373C11.6035 35.0383 11.6035 27.9617 12.4952 21.1627C12.8574 18.401 15.684 16.5832 18.3707 17.5375L19.5941 17.972C26.3469 20.3703 32.6756 23.8269 38.3431 28.2122ZM35.9335 31.6736C36.0471 31.5857 36.0471 31.4143 35.9335 31.3264C30.596 27.1964 24.6359 23.9411 18.2763 21.6824L17.0529 21.2479C16.7899 21.1545 16.4441 21.3327 16.3992 21.6747C15.5521 28.1338 15.5521 34.8662 16.3992 41.3253C16.4441 41.6673 16.7899 41.8455 17.0529 41.7521L18.2763 41.3176C24.6359 39.0589 30.596 35.8036 35.9335 31.6736Z" fill="#FF5A5A"/>
<path fill-rule="evenodd" clip-rule="evenodd" d="M47.2501 16.4062C48.3374 16.4062 49.2188 17.2877 49.2188 18.375V44.625C49.2188 45.7123 48.3374 46.5938 47.2501 46.5938C46.1628 46.5938 45.2813 45.7123 45.2813 44.625V18.375C45.2813 17.2877 46.1628 16.4062 47.2501 16.4062Z" fill="#FF5A5A"/>
</svg>
